<svg version="1.2" xmlns="http://www.w3.org/2000/svg" viewBox="0 0 24 24" width="24" height="24">
	<title>setting-svg</title>
	<style>
		.s0 { fill: #ffffff } 
	</style>
	<path id="Layer" fill-rule="evenodd" class="s0" d="m21.6 9.7q0.1 0.1 0.2 0.2 0.1 0.1 0.2 0.3 0 0.1 0 0.3v3q0 0.2 0 0.3-0.1 0.2-0.2 0.3-0.1 0.1-0.2 0.2-0.1 0.1-0.3 0.1l-1.9 0.7 0.9 1.8q0.1 0.1 0.1 0.2 0 0.2 0 0.4 0 0.1-0.1 0.2-0.1 0.2-0.2 0.3l-2.1 2.1q-0.1 0.1-0.2 0.2-0.2 0.1-0.3 0.1-0.2 0-0.3 0-0.2 0-0.3-0.1l-1.8-0.9-0.6 1.9q-0.1 0.2-0.2 0.3-0.1 0.1-0.2 0.2-0.1 0.1-0.3 0.2-0.1 0-0.3 0h-3q-0.1 0-0.3 0-0.1-0.1-0.3-0.2-0.1-0.1-0.2-0.2-0.1-0.1-0.1-0.3l-0.7-1.9-1.8 0.9q-0.1 0.1-0.2 0.1-0.2 0-0.4 0-0.1 0-0.2-0.1-0.2-0.1-0.3-0.2l-2.1-2.1q-0.1-0.1-0.2-0.2-0.1-0.2-0.1-0.3 0-0.2 0-0.3 0-0.2 0.1-0.3l0.9-1.8-1.9-0.7q-0.2 0-0.3-0.1-0.1-0.1-0.2-0.2-0.1-0.1-0.2-0.3 0-0.1 0-0.3v-3q0-0.2 0-0.3 0.1-0.2 0.2-0.3 0.1-0.1 0.2-0.2 0.1-0.1 0.3-0.1l1.9-0.7-0.9-1.7q-0.1-0.2-0.1-0.3 0-0.2 0-0.4 0-0.1 0.1-0.2 0.1-0.2 0.2-0.3l2.1-2.1q0.1-0.1 0.2-0.2 0.2-0.1 0.3-0.1 0.2 0 0.3 0 0.2 0 0.3 0.1l1.8 0.9 0.6-1.9q0.1-0.2 0.2-0.3 0.1-0.1 0.2-0.2 0.1-0.1 0.3-0.2 0.1 0 0.3 0h3q0.2 0 0.3 0 0.2 0.1 0.3 0.2 0.1 0.1 0.2 0.2 0.1 0.1 0.1 0.3l0.7 1.9 1.8-0.9q0.1-0.1 0.2-0.1 0.2 0 0.4 0 0.1 0 0.2 0.1 0.2 0.1 0.3 0.2l2.1 2.1q0.1 0.1 0.2 0.2 0.1 0.2 0.1 0.3 0 0.2 0 0.3 0 0.2-0.1 0.3l-0.9 1.8 1.9 0.7q0.2 0 0.3 0.1zm-1.6 1.5l-1.2-0.4q-0.4-0.1-0.7-0.4-0.3-0.3-0.5-0.7-0.2-0.4-0.2-0.9 0-0.4 0.2-0.8l0.6-1.1-1.1-1.1-1.1 0.6q-0.4 0.2-0.8 0.2-0.5 0-0.9-0.2-0.4-0.1-0.7-0.5-0.3-0.3-0.4-0.7l-0.4-1.2h-1.6l-0.4 1.2q-0.1 0.4-0.4 0.7-0.3 0.4-0.7 0.5-0.4 0.2-0.9 0.2-0.4 0-0.8-0.2l-1.1-0.6-1.1 1.1 0.6 1.1q0.2 0.4 0.2 0.8 0 0.5-0.2 0.9-0.1 0.4-0.5 0.7-0.3 0.3-0.7 0.4l-1.2 0.4v1.6l1.2 0.4q0.4 0.1 0.7 0.4 0.4 0.3 0.5 0.7 0.2 0.4 0.2 0.9 0 0.4-0.2 0.8l-0.6 1.1 1.1 1.1 1.1-0.6q0.4-0.2 0.8-0.2 0.5 0 0.9 0.2 0.4 0.1 0.7 0.5 0.3 0.3 0.4 0.7l0.4 1.2h1.6l0.4-1.2q0.1-0.4 0.4-0.7 0.3-0.3 0.7-0.5 0.4-0.2 0.9-0.2 0.4 0 0.8 0.2l1.1 0.6 1.1-1.1-0.6-1.1q-0.2-0.4-0.2-0.8 0-0.5 0.2-0.9 0.1-0.4 0.5-0.7 0.3-0.3 0.7-0.4l1.2-0.4zm-6.5-2.9q0.8 0.3 1.3 0.9 0.6 0.5 0.9 1.3 0.3 0.7 0.3 1.5c0 1.6-1 3.1-2.5 3.7-1.5 0.6-3.2 0.3-4.3-0.9-1.2-1.1-1.5-2.8-0.9-4.3 0.6-1.5 2.1-2.5 3.7-2.5q0.8 0 1.5 0.3zm-0.7 5.5q0.3-0.1 0.6-0.4 0.3-0.3 0.4-0.6 0.2-0.4 0.2-0.8c0-0.8-0.5-1.5-1.2-1.9-0.8-0.3-1.6-0.1-2.2 0.5-0.6 0.5-0.8 1.4-0.4 2.2 0.3 0.7 1 1.2 1.8 1.2q0.4 0 0.8-0.2z"/>
</svg>