<svg version="1.2" xmlns="http://www.w3.org/2000/svg" viewBox="0 0 24 24" width="24" height="24">
	<title>todo-svg</title>
	<style>
		.s0 { fill: #ffffff } 
	</style>
	<path id="Layer" fill-rule="evenodd" class="s0" d="m1.6 10.9q-0.2-0.1-0.3-0.2-0.1-0.1-0.2-0.3-0.1-0.2-0.1-0.4v-6q0-0.2 0.1-0.4 0.1-0.2 0.2-0.3 0.1-0.1 0.3-0.2 0.2-0.1 0.4-0.1h6q0.2 0 0.4 0.1 0.2 0.1 0.3 0.2 0.1 0.1 0.2 0.3 0.1 0.2 0.1 0.4v6q0 0.2-0.1 0.4-0.1 0.2-0.2 0.3-0.1 0.1-0.3 0.2-0.2 0.1-0.4 0.1h-6q-0.2 0-0.4-0.1zm1.4-1.9h4v-4h-4zm19.7-2.7q0.3 0.3 0.3 0.7 0 0.4-0.3 0.7-0.3 0.3-0.7 0.3h-10q-0.4 0-0.7-0.3-0.3-0.3-0.3-0.7 0-0.4 0.3-0.7 0.3-0.3 0.7-0.3h10q0.4 0 0.7 0.3zm0 10q0.3 0.3 0.3 0.7 0 0.4-0.3 0.7-0.3 0.3-0.7 0.3h-10q-0.4 0-0.7-0.3-0.3-0.3-0.3-0.7 0-0.4 0.3-0.7 0.3-0.3 0.7-0.3h10q0.4 0 0.7 0.3zm-19 3.7q-0.1 0-0.1-0.1-0.1 0-0.2-0.1-0.1 0-0.2-0.1l-1.9-2q-0.3-0.3-0.3-0.7 0-0.5 0.3-0.7 0.3-0.3 0.7-0.3 0.4 0 0.7 0.3l1.3 1.3 3.3-3.3c0.2-0.2 0.4-0.3 0.7-0.3 0.3-0.1 0.6 0.1 0.8 0.3 0.2 0.1 0.3 0.4 0.2 0.7 0 0.3-0.1 0.5-0.3 0.7l-4 4q-0.1 0.1-0.2 0.1-0.1 0.1-0.2 0.1-0.1 0.1-0.2 0.1 0 0-0.1 0h-0.1q-0.1 0-0.2 0z"/>
</svg>